<svg width="33" height="27" viewBox="0 0 33 27" fill="none" xmlns="http://www.w3.org/2000/svg">
<path d="M2.67568 10.8C1.19514 10.8 0 12.006 0 13.5C0 14.994 1.19514 16.2 2.67568 16.2C4.15622 16.2 5.35135 14.994 5.35135 13.5C5.35135 12.006 4.15622 10.8 2.67568 10.8ZM2.67568 0C1.19514 0 0 1.206 0 2.7C0 4.194 1.19514 5.4 2.67568 5.4C4.15622 5.4 5.35135 4.194 5.35135 2.7C5.35135 1.206 4.15622 0 2.67568 0ZM2.67568 21.6C1.19514 21.6 0 22.824 0 24.3C0 25.776 1.21297 27 2.67568 27C4.13838 27 5.35135 25.776 5.35135 24.3C5.35135 22.824 4.15622 21.6 2.67568 21.6ZM8.02703 26.1H33V22.5H8.02703V26.1ZM8.02703 15.3H33V11.7H8.02703V15.3ZM8.02703 0.9V4.5H33V0.9H8.02703Z" fill="#FEB226"/>
</svg>
