<svg width="30" height="32" viewBox="0 0 30 32" fill="none" xmlns="http://www.w3.org/2000/svg">
<path d="M26.305 17.482C26.362 17.007 26.4 16.513 26.4 16C26.4 15.487 26.362 14.993 26.286 14.518L29.497 12.01C29.782 11.782 29.858 11.364 29.687 11.041L26.647 5.778C26.457 5.436 26.058 5.322 25.716 5.436L21.935 6.956C21.137 6.348 20.301 5.854 19.37 5.474L18.8 1.446C18.743 1.066 18.42 0.800003 18.04 0.800003H11.96C11.58 0.800003 11.276 1.066 11.219 1.446L10.649 5.474C9.71803 5.854 8.86303 6.367 8.08403 6.956L4.30303 5.436C3.96103 5.303 3.56203 5.436 3.37203 5.778L0.332026 11.041C0.142026 11.383 0.218027 11.782 0.522027 12.01L3.73303 14.518C3.65703 14.993 3.60003 15.506 3.60003 16C3.60003 16.494 3.63803 17.007 3.71403 17.482L0.503026 19.99C0.218026 20.218 0.142026 20.636 0.313026 20.959L3.35303 26.222C3.54303 26.564 3.94203 26.678 4.28403 26.564L8.06503 25.044C8.86303 25.652 9.69903 26.146 10.63 26.526L11.2 30.554C11.276 30.934 11.58 31.2 11.96 31.2H18.04C18.42 31.2 18.743 30.934 18.781 30.554L19.351 26.526C20.282 26.146 21.137 25.633 21.916 25.044L25.697 26.564C26.039 26.697 26.438 26.564 26.628 26.222L29.668 20.959C29.858 20.617 29.782 20.218 29.478 19.99L26.305 17.482ZM15 21.7C11.865 21.7 9.30003 19.135 9.30003 16C9.30003 12.865 11.865 10.3 15 10.3C18.135 10.3 20.7 12.865 20.7 16C20.7 19.135 18.135 21.7 15 21.7Z" fill="#C4C4C4"/>
</svg>
